<svg width="16" height="16" viewBox="0 0 16 16" fill="none" xmlns="http://www.w3.org/2000/svg">
<path d="M14.554 4.67113L10.0001 9.23965C9.92103 9.3196 9.81469 9.36308 9.70448 9.3623L5.89203 9.35141C5.77582 9.35063 5.66569 9.30179 5.58664 9.21561L1.40267 4.65094C1.14359 4.36837 1 3.99575 1 3.60914V2.24518C1 1.40445 1.66707 1 2.48988 1H13.5101C14.3329 1 15 1.40445 15 2.24518V3.58508C15 3.99341 14.839 4.38467 14.554 4.67113Z" fill="currentColor"/>
<path d="M5.71045 14.448V10.8668H9.87693V13.0111C9.87693 13.2276 9.75312 13.4241 9.56014 13.5133L6.4755 14.9511C6.40411 14.9837 6.32735 15 6.25066 15C6.14883 15 6.047 14.9704 5.95893 14.9123C5.80469 14.8113 5.71045 14.6351 5.71045 14.448Z" fill="currentColor"/>
</svg>
