<svg width="14" height="14" viewBox="0 0 14 14" fill="none" xmlns="http://www.w3.org/2000/svg">
<path fill-rule="evenodd" clip-rule="evenodd" d="M1.91374 0C1.45425 0 0.98354 0.111928 0.614155 0.394441C0.226326 0.691062 0 1.13952 0 1.68789V2.94696C0 3.43666 0.181785 3.91098 0.513262 4.27253L4.34819 8.4565V12.952C4.34819 13.3024 4.52331 13.6357 4.82005 13.8304C4.99075 13.9429 5.1879 14 5.38526 14C5.53237 14 5.67955 13.9688 5.81653 13.9062L8.66629 12.578L8.66701 12.5776C9.03984 12.4048 9.27109 12.0299 9.27109 11.6256V8.48091L13.4317 4.30699C13.7958 3.94086 14 3.44284 14 2.92475V1.68789C14 1.13952 13.7737 0.691062 13.3859 0.394441C13.0165 0.111928 12.5457 0 12.0862 0H1.91374ZM8.55709 7.67178L12.6681 3.54756C12.8297 3.38486 12.9231 3.1604 12.9231 2.92475V1.68789C12.9231 1.46019 12.8415 1.33393 12.7316 1.24986C12.6032 1.15167 12.3863 1.07692 12.0862 1.07692H1.91374C1.6137 1.07692 1.39678 1.15167 1.2684 1.24986C1.15847 1.33393 1.07692 1.46019 1.07692 1.68789V2.94696C1.07692 3.171 1.16023 3.38463 1.30705 3.54476L5.08983 7.67178H8.55709ZM5.42511 12.9005V8.74871H8.19416V11.6098L5.42511 12.9005Z" fill="currentColor"/>
</svg>
