<svg width="14" height="13" viewBox="0 0 14 13" fill="none" xmlns="http://www.w3.org/2000/svg">
<path fill-rule="evenodd" clip-rule="evenodd" d="M11.6648 2.16061V4.33328C11.9275 4.33328 12.1875 4.38501 12.4302 4.48552C12.6728 4.58603 12.8933 4.73335 13.079 4.91906C13.2648 5.10478 13.4121 5.32526 13.5126 5.56791C13.6131 5.81056 13.6648 6.07063 13.6648 6.33328C13.6648 6.59592 13.6131 6.85599 13.5126 7.09865C13.4121 7.3413 13.2648 7.56178 13.079 7.74749C12.8933 7.93321 12.6728 8.08053 12.4302 8.18104C12.1875 8.28155 11.9275 8.33328 11.6648 8.33328V10.3333C11.6648 11.4319 10.4108 12.0593 9.5315 11.3999L8.15816 10.3693C7.42407 9.81885 6.56933 9.45136 5.66483 9.29728V11.1933C5.6649 11.6291 5.50743 12.0503 5.22143 12.3791C4.93543 12.708 4.5402 12.9224 4.10857 12.9828C3.67695 13.0432 3.23804 12.9456 2.87275 12.7078C2.50746 12.4701 2.24041 12.1084 2.12083 11.6893L1.07416 8.02528C0.697509 7.58047 0.452388 7.03942 0.366355 6.46295C0.280321 5.88648 0.356786 5.29744 0.587153 4.76204C0.81752 4.22664 1.19266 3.76611 1.6704 3.43221C2.14814 3.09831 2.70954 2.90429 3.2915 2.87195L5.3035 2.75994C6.28791 2.70516 7.24526 2.4175 8.09683 1.92061L9.6595 1.00861C10.5488 0.490612 11.6648 1.13128 11.6648 2.16061ZM2.75416 9.05195L3.40283 11.3233C3.43405 11.4332 3.50399 11.5282 3.59975 11.5906C3.6955 11.653 3.8106 11.6786 3.92378 11.6628C4.03697 11.6469 4.1406 11.5906 4.21554 11.5044C4.29048 11.4181 4.33167 11.3076 4.3315 11.1933V9.18661L3.2915 9.12861C3.11051 9.11857 2.93073 9.09292 2.75416 9.05195ZM10.3315 2.16061L8.76816 3.07328C7.81841 3.62691 6.75937 3.9668 5.66483 4.06928V7.94861C6.85616 8.11261 7.99016 8.57728 8.95816 9.30261L10.3315 10.3333V2.16061ZM4.3315 4.14928L3.36483 4.20261C2.91513 4.22744 2.49107 4.41996 2.17637 4.74216C1.86167 5.06436 1.6792 5.49283 1.66497 5.94299C1.65073 6.39316 1.80578 6.8323 2.0995 7.17373C2.39321 7.51517 2.80426 7.73409 3.2515 7.78728L3.36483 7.79728L4.3315 7.85061V4.14928ZM11.6648 5.66661V6.99995C11.8347 6.99976 11.9982 6.93469 12.1217 6.81805C12.2453 6.7014 12.3197 6.54198 12.3296 6.37235C12.3396 6.20272 12.2844 6.03569 12.1753 5.90539C12.0663 5.77509 11.9116 5.69135 11.7428 5.67128L11.6648 5.66661Z" fill="currentColor"/>
</svg>
